/* XPM */
static char * wolf64_xpm[] = {
"64 63 2 1",
" 	c None",
".	c #000000",
"                                                                ",
"                                                                ",
"                                                                ",
"                                                                ",
"                                                                ",
"                                                                ",
"                                                                ",
"                                                                ",
"                                                                ",
"                                                                ",
"                  .     ..                                      ",
"                ....   ...                                      ",
"                ....  ....                                      ",
"               .....  ....                                      ",
"              ......  ....                                      ",
"              .......  ...                                      ",
"             ......... ...                                      ",
"             .......... ..                                      ",
"             ...........                                        ",
"            .............                                       ",
"            ...............                                     ",
"            .................                                   ",
"            ...................                                 ",
"            ....................                                ",
"          .  ....................                               ",
"         ..  .....................                              ",
"        .... ...........  ........                              ",
"       ...... ...........   .......                             ",
"      ...................     .....                             ",
"     ...............................                            ",
"     ................................                           ",
"    ....................................                        ",
" .........................................                      ",
" ...........................................                    ",
"  ............................................                  ",
"  .............................................                 ",
"  .............................................                 ",
"  ............................................                  ",
"  ............. ........         ............                   ",
"  ............  .....               ........                    ",
"   ..........   ...     ..........      ...                     ",
"   ..........   .      ................                         ",
"   .........         ..............                             ",
"    ........        ...........                                 ",
"    .......         .........                                   ",
"     ......    .   ........                                     ",
"     ......    .  ........                                      ",
"      .....    .. .......                                       ",
"       ....    .........                                        ",
"       ....    ........                                         ",
"        ....   ........                                         ",
"         ....  .......                                          ",
"          .... .......                                          ",
"           ...........                                          ",
"            .........                                           ",
"             ........                                           ",
"              .......                                           ",
"                .....                                           ",
"                  ...                                           ",
"                    .                                           ",
"                                                                ",
"                                                                ",
"                                                                "};
