/* XPM */
static char * wolf128_xpm[] = {
"128 126 2 1",
" 	c None",
".	c #000000",
"                                                                                                                                ",
"                                                                                                                                ",
"                                                                                                                                ",
"                                                                                                                                ",
"                                                                                                                                ",
"                                                                                                                                ",
"                                                                                                                                ",
"                                                                                                                                ",
"                                                                                                                                ",
"                                                                                                                                ",
"                                                                                                                                ",
"                                                                                                                                ",
"                                                                                                                                ",
"                                                                                                                                ",
"                                                                                                                                ",
"                                                                                                                                ",
"                                                                                                                                ",
"                                                                                                                                ",
"                                                                                                                                ",
"                                     ..                                                                                         ",
"                                    ...           .                                                                             ",
"                                  .....        .....                                                                            ",
"                                 ......       ......                                                                            ",
"                                .......      ......                                                                             ",
"                               ........     .......                                                                             ",
"                               ........     .......                                                                             ",
"                              ..........   .........                                                                            ",
"                             ...........   .........                                                                            ",
"                             ............   ........                                                                            ",
"                            .............   ........                                                                            ",
"                           ...............   .......                                                                            ",
"                           ...............   .......                                                                            ",
"                           ................   ......                                                                            ",
"                          ..................   .....                                                                            ",
"                          ...................   ....                                                                            ",
"                          ....................    ..                                                                            ",
"                         ......................    .                                                                            ",
"                         .......................                                                                                ",
"                         .........................                                                                              ",
"                         ..........................                                                                             ",
"                         ............................                                                                           ",
"                         ..............................                                                                         ",
"                         ................................                                                                       ",
"                         ...................................                                                                    ",
"                         .....................................                                                                  ",
"                         ......................................                                                                 ",
"                         .......................................                                                                ",
"                         ........................................                                                               ",
"                         .........................................                                                              ",
"                    ..    ........................................                                                              ",
"                   ...    .........................................                                                             ",
"                 ......   ..........................................                                                            ",
"                ........  ......................  ..................                                                            ",
"               ..........  .....................     ................                                                           ",
"              ............ ......................       ..............                                                          ",
"             .............. ......................        ............                                                          ",
"            ......................................          ...........                                                         ",
"           ........................................       .............                                                         ",
"           .............................................................                                                        ",
"          ..............................................................                                                        ",
"          ...............................................................                                                       ",
"          ..................................................................                                                    ",
"         .....................................................................                                                  ",
"   .............................................................................                                                ",
"   ................................................................................                                             ",
"   ..................................................................................                                           ",
"   .....................................................................................                                        ",
"   .......................................................................................                                      ",
"   .........................................................................................                                    ",
"   ..........................................................................................                                   ",
"   ..........................................................................................                                   ",
"   ...........................................................................................                                  ",
"   ...........................................................................................                                  ",
"    .........................................................................................                                   ",
"    .........................................................................................                                   ",
"    ........................................................................................                                    ",
"    ...............................................           .............................                                     ",
"    .........................  ...............                    ........................                                      ",
"     .......................    ...........                           ...................                                       ",
"     .......................    .........             .......            ...............                                        ",
"     ......................     .......           ................           ..........                                         ",
"      ....................      .....           ......................           ....                                           ",
"      ....................       ..           ............................                                                      ",
"      ...................        .           ..................................                                                 ",
"       ..................                  .................................                                                    ",
"       .................                  .........................                                                             ",
"       .................                 .......................                                                                ",
"        ................                .....................                                                                   ",
"        ...............                ....................                                                                     ",
"         ..............                ..................                                                                       ",
"         ..............       ..      .................                                                                         ",
"          ............        ..     .................                                                                          ",
"          ............        ...    ................                                                                           ",
"           ...........        ...   ................                                                                            ",
"            ..........        ....  ..............                                                                              ",
"            .........         ....................                                                                              ",
"             ........         ...................                                                                               ",
"              .......         ..................                                                                                ",
"              ........        .................                                                                                 ",
"               ........       ................                                                                                  ",
"                ........      ................                                                                                  ",
"                 ........     ...............                                                                                   ",
"                 .........    ...............                                                                                   ",
"                  .........   ..............                                                                                    ",
"                   .........  ..............                                                                                    ",
"                    ......... .............                                                                                     ",
"                     ......................                                                                                     ",
"                      .....................                                                                                     ",
"                       ....................                                                                                     ",
"                        ..................                                                                                      ",
"                          ................                                                                                      ",
"                           ...............                                                                                      ",
"                            ..............                                                                                      ",
"                              ............                                                                                      ",
"                               ...........                                                                                      ",
"                                 .........                                                                                      ",
"                                   .......                                                                                      ",
"                                    ......                                                                                      ",
"                                       ...                                                                                      ",
"                                         .                                                                                      ",
"                                                                                                                                ",
"                                                                                                                                ",
"                                                                                                                                ",
"                                                                                                                                ",
"                                                                                                                                ",
"                                                                                                                                "};
